# This file uses centimeters as units for non-parametric coordinates.

mtllib Pillow.mtl
g default
v -1.706089 1.997428 -3.748659
v -1.398992 2.018300 -3.760624
v -1.111595 2.026166 -3.771344
v -0.834438 2.026166 -3.771344
v -0.547041 2.018300 -3.760624
v -0.239944 1.997428 -3.748659
v -1.880532 2.175518 -3.526446
v -1.504044 2.179728 -3.543287
v -1.145771 2.183713 -3.559230
v -0.800262 2.183713 -3.559230
v -0.441989 2.179728 -3.543287
v -0.065501 2.175518 -3.526446
v -1.706089 2.437224 -3.638715
v -1.398992 2.424438 -3.659094
v -1.111595 2.422542 -3.672254
v -0.834438 2.422542 -3.672254
v -0.547041 2.424438 -3.659094
v -0.239944 2.437224 -3.638715
v -1.741812 2.484764 -3.828882
v -1.398992 2.448054 -3.864302
v -1.111595 2.444963 -3.872686
v -0.834438 2.444963 -3.872686
v -0.547041 2.448054 -3.864302
v -0.204221 2.484764 -3.828882
v -1.741812 2.538551 -4.044043
v -1.398992 2.497725 -4.062997
v -1.111595 2.493441 -4.066605
v -0.834438 2.493441 -4.066605
v -0.547041 2.497725 -4.062997
v -0.204221 2.538551 -4.044043
v -1.741812 2.592339 -4.259203
v -1.398992 2.547396 -4.261691
v -1.111595 2.541919 -4.260523
v -0.834438 2.541919 -4.260523
v -0.547041 2.547396 -4.261691
v -0.204221 2.592339 -4.259203
v -1.741812 2.646127 -4.474364
v -1.398992 2.597068 -4.460385
v -1.111595 2.590396 -4.454442
v -0.834438 2.590396 -4.454442
v -0.547041 2.597068 -4.460385
v -0.204221 2.646127 -4.474364
v -1.706089 2.693667 -4.664531
v -1.398992 2.672795 -4.652566
v -1.111595 2.664929 -4.641847
v -0.834438 2.664929 -4.641847
v -0.547041 2.672795 -4.652566
v -0.239944 2.693667 -4.664531
v -1.880532 2.515577 -4.886744
v -1.504044 2.511367 -4.869904
v -1.145771 2.507382 -4.853960
v -0.800262 2.507382 -4.853960
v -0.441989 2.511367 -4.869904
v -0.065501 2.515577 -4.886744
v -1.706089 2.253871 -4.774475
v -1.398992 2.266657 -4.754096
v -1.111595 2.268553 -4.740936
v -0.834438 2.268553 -4.740936
v -0.547041 2.266657 -4.754096
v -0.239944 2.253871 -4.774475
v -1.741812 2.206331 -4.584308
v -1.398992 2.243041 -4.548888
v -1.111595 2.246131 -4.540504
v -0.834438 2.246131 -4.540504
v -0.547041 2.243041 -4.548888
v -0.204221 2.206331 -4.584308
v -1.741812 2.152543 -4.369148
v -1.398992 2.193370 -4.350194
v -1.111595 2.197654 -4.346586
v -0.834438 2.197654 -4.346586
v -0.547041 2.193370 -4.350194
v -0.204221 2.152543 -4.369148
v -1.741812 2.098756 -4.153987
v -1.398992 2.143698 -4.151499
v -1.111595 2.149176 -4.152667
v -0.834438 2.149176 -4.152667
v -0.547041 2.143698 -4.151499
v -0.204221 2.098756 -4.153987
v -1.741812 2.044968 -3.938826
v -1.398992 2.094027 -3.952805
v -1.111595 2.100699 -3.958748
v -0.834438 2.100699 -3.958748
v -0.547041 2.094027 -3.952805
v -0.204221 2.044968 -3.938826
v -0.014625 2.453285 -4.637562
v -0.014625 2.381460 -4.350251
v -0.014625 2.309635 -4.062939
v -0.014625 2.237810 -3.775628
v -1.931408 2.453285 -4.637562
v -1.931408 2.381460 -4.350251
v -1.931408 2.309635 -4.062939
v -1.931408 2.237810 -3.775628
vt 0.566410 0.590652
vt 0.566410 0.481762
vt 0.632742 0.481762
vt 0.632742 0.590652
vt 0.509452 0.651645
vt 0.509452 0.516963
vt 0.566410 0.391184
vt 0.632742 0.391184
vt 0.697161 0.481762
vt 0.697161 0.590652
vt 0.589858 0.651645
vt 0.509452 0.391184
vt 0.566410 0.286859
vt 0.632742 0.286859
vt 0.697161 0.391184
vt 0.780270 0.481762
vt 0.780270 0.590652
vt 0.697161 0.651645
vt 0.509452 0.286859
vt 0.566410 0.196281
vt 0.632742 0.196281
vt 0.697161 0.286859
vt 0.780270 0.391184
vt 0.844688 0.481762
vt 0.844688 0.590652
vt 0.780270 0.651645
vt 0.509452 0.161079
vt 0.566410 0.087390
vt 0.632742 0.087390
vt 0.697161 0.196281
vt 0.780270 0.286859
vt 0.844688 0.391184
vt 0.911020 0.481762
vt 0.911020 0.590652
vt 0.887573 0.651645
vt 0.509452 0.026397
vt 0.589858 0.026397
vt 0.697161 0.087390
vt 0.780270 0.196281
vt 0.844688 0.286859
vt 0.911020 0.391184
vt 0.967979 0.516963
vt 0.967979 0.651645
vt 0.697161 0.026397
vt 0.780270 0.087390
vt 0.844688 0.196281
vt 0.911020 0.286859
vt 0.967979 0.391184
vt 0.780270 0.026397
vt 0.844688 0.087390
vt 0.911020 0.196281
vt 0.967979 0.286859
vt 0.887573 0.026397
vt 0.911020 0.087390
vt 0.967979 0.161079
vt 0.967979 0.026397
vt 0.088980 0.590652
vt 0.088980 0.481762
vt 0.155312 0.481762
vt 0.155312 0.590652
vt 0.032021 0.651645
vt 0.032021 0.516963
vt 0.088980 0.391184
vt 0.155312 0.391184
vt 0.219730 0.481762
vt 0.219730 0.590652
vt 0.112427 0.651645
vt 0.032021 0.391184
vt 0.088980 0.286859
vt 0.155312 0.286859
vt 0.219730 0.391184
vt 0.302839 0.481762
vt 0.302839 0.590652
vt 0.219730 0.651645
vt 0.032021 0.286859
vt 0.088980 0.196281
vt 0.155312 0.196281
vt 0.219730 0.286859
vt 0.302839 0.391184
vt 0.367258 0.481762
vt 0.367258 0.590652
vt 0.302839 0.651645
vt 0.032021 0.161079
vt 0.088980 0.087390
vt 0.155312 0.087390
vt 0.219730 0.196281
vt 0.302839 0.286859
vt 0.367258 0.391184
vt 0.433590 0.481762
vt 0.433590 0.590652
vt 0.410142 0.651645
vt 0.032021 0.026397
vt 0.112427 0.026397
vt 0.219730 0.087390
vt 0.302839 0.196281
vt 0.367258 0.286859
vt 0.433590 0.391184
vt 0.490548 0.516963
vt 0.490548 0.651645
vt 0.219730 0.026397
vt 0.302839 0.087390
vt 0.367258 0.196281
vt 0.433590 0.286859
vt 0.490548 0.391184
vt 0.302839 0.026397
vt 0.367258 0.087390
vt 0.433590 0.196281
vt 0.490548 0.286859
vt 0.410142 0.026397
vt 0.433590 0.087390
vt 0.490548 0.161079
vt 0.490548 0.026397
vn 0.054995 -0.772984 0.632037
vn 0.045824 -0.786799 0.615505
vn 0.062393 -0.242053 0.968255
vn 0.068528 -0.241955 0.967864
vn 0.018497 -0.799767 0.600025
vn 0.028309 -0.242428 0.969756
vn -0.018497 -0.799767 0.600025
vn -0.028309 -0.242428 0.969756
vn -0.045824 -0.786799 0.615505
vn -0.062393 -0.242053 0.968255
vn -0.054995 -0.772984 0.632037
vn -0.068528 -0.241955 0.967864
vn 0.045824 0.404604 0.913343
vn 0.054995 0.384635 0.921429
vn 0.018497 0.423331 0.905786
vn -0.018497 0.423331 0.905786
vn -0.045824 0.404604 0.913343
vn -0.054995 0.384635 0.921429
vn 0.089234 0.981637 0.168602
vn 0.054605 0.988157 0.143404
vn 0.067249 0.978638 0.194282
vn 0.109938 0.972115 0.207137
vn 0.006668 0.993686 0.112000
vn 0.007801 0.984014 0.177922
vn -0.006668 0.993686 0.112000
vn -0.007801 0.984014 0.177922
vn -0.054605 0.988157 0.143404
vn -0.067249 0.978638 0.194282
vn -0.089234 0.981637 0.168602
vn -0.109938 0.972115 0.207137
vn 0.079327 0.967088 0.241761
vn 0.127884 0.962179 0.240534
vn 0.008965 0.970106 0.242516
vn -0.008965 0.970106 0.242516
vn -0.079327 0.967088 0.241761
vn -0.127884 0.962179 0.240534
vn 0.079327 0.967088 0.241761
vn 0.127884 0.962179 0.240534
vn 0.008965 0.970106 0.242516
vn -0.008965 0.970106 0.242516
vn -0.079327 0.967088 0.241761
vn -0.127884 0.962179 0.240534
vn 0.067249 0.954937 0.289090
vn 0.109938 0.955230 0.274679
vn 0.007801 0.951982 0.306056
vn -0.007801 0.951982 0.306056
vn -0.067249 0.954937 0.289090
vn -0.109938 0.955230 0.274679
vn 0.054605 0.939394 0.338463
vn 0.089234 0.945499 0.313161
vn 0.006668 0.929495 0.368774
vn -0.006668 0.929495 0.368774
vn -0.054605 0.939394 0.338463
vn -0.089234 0.945499 0.313161
vn 0.054995 0.772984 -0.632037
vn 0.045824 0.786799 -0.615505
vn 0.062393 0.242053 -0.968255
vn 0.068528 0.241955 -0.967864
vn 0.018497 0.799767 -0.600025
vn 0.028309 0.242428 -0.969756
vn -0.018497 0.799767 -0.600025
vn -0.028309 0.242428 -0.969756
vn -0.045824 0.786799 -0.615505
vn -0.062393 0.242053 -0.968255
vn -0.054995 0.772984 -0.632037
vn -0.068528 0.241955 -0.967864
vn 0.045824 -0.404604 -0.913343
vn 0.054995 -0.384635 -0.921429
vn 0.018497 -0.423331 -0.905786
vn -0.018497 -0.423331 -0.905786
vn -0.045824 -0.404604 -0.913343
vn -0.054995 -0.384635 -0.921429
vn 0.089234 -0.981637 -0.168602
vn 0.054605 -0.988157 -0.143404
vn 0.067249 -0.978638 -0.194282
vn 0.109938 -0.972115 -0.207137
vn 0.006668 -0.993686 -0.112000
vn 0.007801 -0.984014 -0.177922
vn -0.006668 -0.993686 -0.112000
vn -0.007801 -0.984014 -0.177922
vn -0.054605 -0.988157 -0.143404
vn -0.067249 -0.978638 -0.194282
vn -0.089234 -0.981637 -0.168602
vn -0.109938 -0.972115 -0.207137
vn 0.079327 -0.967088 -0.241761
vn 0.127884 -0.962179 -0.240534
vn 0.008965 -0.970106 -0.242516
vn -0.008965 -0.970106 -0.242516
vn -0.079327 -0.967088 -0.241761
vn -0.127884 -0.962179 -0.240534
vn 0.079327 -0.967088 -0.241761
vn 0.127884 -0.962179 -0.240534
vn 0.008965 -0.970106 -0.242516
vn -0.008965 -0.970106 -0.242516
vn -0.079327 -0.967088 -0.241761
vn -0.127884 -0.962179 -0.240534
vn 0.067249 -0.954937 -0.289090
vn 0.109938 -0.955230 -0.274679
vn 0.007801 -0.951982 -0.306056
vn -0.007801 -0.951982 -0.306056
vn -0.067249 -0.954937 -0.289090
vn -0.109938 -0.955230 -0.274679
vn 0.054605 -0.939394 -0.338463
vn 0.089234 -0.945499 -0.313161
vn 0.006668 -0.929495 -0.368774
vn -0.006668 -0.929495 -0.368774
vn -0.054605 -0.939394 -0.338463
vn -0.089234 -0.945499 -0.313161
vn 0.753753 -0.622245 -0.211347
vn 0.727752 -0.617773 -0.297882
vn 0.982203 0.045551 -0.182212
vn 0.994199 0.026086 -0.104347
vn 0.767040 -0.622444 -0.155604
vn 1.000000 -0.000000 -0.000000
vn 0.767040 -0.622444 -0.155604
vn 1.000000 0.000000 0.000000
vn 0.753753 -0.648499 -0.106325
vn 0.994199 -0.026086 0.104347
vn 0.727752 -0.685274 -0.027866
vn 0.982203 -0.045551 0.182212
vn 0.727752 0.685274 0.027866
vn 0.753753 0.648499 0.106325
vn 0.767040 0.622444 0.155604
vn 0.767040 0.622444 0.155604
vn 0.753753 0.622245 0.211347
vn 0.727752 0.617773 0.297882
vn -0.727752 -0.617773 -0.297882
vn -0.753753 -0.622245 -0.211347
vn -0.994199 0.026086 -0.104347
vn -0.982203 0.045551 -0.182212
vn -0.767040 -0.622444 -0.155604
vn -1.000000 -0.000000 -0.000000
vn -0.767040 -0.622444 -0.155604
vn -1.000000 0.000000 0.000000
vn -0.753753 -0.648499 -0.106325
vn -0.994199 -0.026086 0.104347
vn -0.727752 -0.685274 -0.027866
vn -0.982203 -0.045551 0.182212
vn -0.753753 0.648499 0.106325
vn -0.727752 0.685274 0.027866
vn -0.767040 0.622444 0.155604
vn -0.767040 0.622444 0.155604
vn -0.753753 0.622245 0.211347
vn -0.727752 0.617773 0.297882
s 1
g pillowleft pillow
usemtl initialShadingGroup
f 1/90/1 2/89/2 8/98/3 7/99/4
f 2/89/2 3/97/5 9/104/6 8/98/3
f 3/97/5 4/103/7 10/108/8 9/104/6
f 4/103/7 5/107/9 11/111/10 10/108/8
f 5/107/9 6/110/11 12/112/12 11/111/10
f 7/5/4 8/6/3 14/2/13 13/1/14
f 8/6/3 9/12/6 15/7/15 14/2/13
f 9/12/6 10/19/8 16/13/16 15/7/15
f 10/19/8 11/27/10 17/20/17 16/13/16
f 11/27/10 12/36/12 18/28/18 17/20/17
s 2
f 13/1/19 14/2/20 20/3/21 19/4/22
f 14/2/20 15/7/23 21/8/24 20/3/21
f 15/7/23 16/13/25 22/14/26 21/8/24
f 16/13/25 17/20/27 23/21/28 22/14/26
f 17/20/27 18/28/29 24/29/30 23/21/28
f 19/4/22 20/3/21 26/9/31 25/10/32
f 20/3/21 21/8/24 27/15/33 26/9/31
f 21/8/24 22/14/26 28/22/34 27/15/33
f 22/14/26 23/21/28 29/30/35 28/22/34
f 23/21/28 24/29/30 30/38/36 29/30/35
f 25/10/32 26/9/31 32/16/37 31/17/38
f 26/9/31 27/15/33 33/23/39 32/16/37
f 27/15/33 28/22/34 34/31/40 33/23/39
f 28/22/34 29/30/35 35/39/41 34/31/40
f 29/30/35 30/38/36 36/45/42 35/39/41
f 31/17/38 32/16/37 38/24/43 37/25/44
f 32/16/37 33/23/39 39/32/45 38/24/43
f 33/23/39 34/31/40 40/40/46 39/32/45
f 34/31/40 35/39/41 41/46/47 40/40/46
f 35/39/41 36/45/42 42/50/48 41/46/47
f 37/25/44 38/24/43 44/33/49 43/34/50
f 38/24/43 39/32/45 45/41/51 44/33/49
f 39/32/45 40/40/46 46/47/52 45/41/51
f 40/40/46 41/46/47 47/51/53 46/47/52
f 41/46/47 42/50/48 48/54/54 47/51/53
s 3
f 43/34/55 44/33/56 50/42/57 49/43/58
f 44/33/56 45/41/59 51/48/60 50/42/57
f 45/41/59 46/47/61 52/52/62 51/48/60
f 46/47/61 47/51/63 53/55/64 52/52/62
f 47/51/63 48/54/65 54/56/66 53/55/64
f 49/61/58 50/62/57 56/58/67 55/57/68
f 50/62/57 51/68/60 57/63/69 56/58/67
f 51/68/60 52/75/62 58/69/70 57/63/69
f 52/75/62 53/83/64 59/76/71 58/69/70
f 53/83/64 54/92/66 60/84/72 59/76/71
s 4
f 55/57/73 56/58/74 62/59/75 61/60/76
f 56/58/74 57/63/77 63/64/78 62/59/75
f 57/63/77 58/69/79 64/70/80 63/64/78
f 58/69/79 59/76/81 65/77/82 64/70/80
f 59/76/81 60/84/83 66/85/84 65/77/82
f 61/60/76 62/59/75 68/65/85 67/66/86
f 62/59/75 63/64/78 69/71/87 68/65/85
f 63/64/78 64/70/80 70/78/88 69/71/87
f 64/70/80 65/77/82 71/86/89 70/78/88
f 65/77/82 66/85/84 72/94/90 71/86/89
f 67/66/86 68/65/85 74/72/91 73/73/92
f 68/65/85 69/71/87 75/79/93 74/72/91
f 69/71/87 70/78/88 76/87/94 75/79/93
f 70/78/88 71/86/89 77/95/95 76/87/94
f 71/86/89 72/94/90 78/101/96 77/95/95
f 73/73/92 74/72/91 80/80/97 79/81/98
f 74/72/91 75/79/93 81/88/99 80/80/97
f 75/79/93 76/87/94 82/96/100 81/88/99
f 76/87/94 77/95/95 83/102/101 82/96/100
f 77/95/95 78/101/96 84/106/102 83/102/101
f 79/81/98 80/80/97 2/89/103 1/90/104
f 80/80/97 81/88/99 3/97/105 2/89/103
f 81/88/99 82/96/100 4/103/106 3/97/105
f 82/96/100 83/102/101 5/107/107 4/103/106
f 83/102/101 84/106/102 6/110/108 5/107/107
s 5
f 66/85/109 60/84/110 54/92/111 85/93/112
f 72/94/113 66/85/109 85/93/112 86/100/114
f 78/101/115 72/94/113 86/100/114 87/105/116
f 84/106/117 78/101/115 87/105/116 88/109/118
f 6/110/119 84/106/117 88/109/118 12/112/120
f 85/53/112 54/56/111 48/54/121 42/50/122
f 86/49/114 85/53/112 42/50/122 36/45/123
f 87/44/116 86/49/114 36/45/123 30/38/124
f 88/37/118 87/44/116 30/38/124 24/29/125
f 12/36/120 88/37/118 24/29/125 18/28/126
s 6
f 55/57/127 61/60/128 89/67/129 49/61/130
f 61/60/128 67/66/131 90/74/132 89/67/129
f 67/66/131 73/73/133 91/82/134 90/74/132
f 73/73/133 79/81/135 92/91/136 91/82/134
f 79/81/135 1/90/137 7/99/138 92/91/136
f 49/43/130 89/35/129 37/25/139 43/34/140
f 89/35/129 90/26/132 31/17/141 37/25/139
f 90/26/132 91/18/134 25/10/142 31/17/141
f 91/18/134 92/11/136 19/4/143 25/10/142
f 92/11/136 7/5/138 13/1/144 19/4/143
