# This file uses centimeters as units for non-parametric coordinates.

mtllib sofachair.mtl
g default
v -3.026997 -0.000000 -1.967207
v -2.948727 5.703536 -2.077672
v -2.948727 -0.000000 -2.846040
v -2.948727 5.703536 -2.846040
v -3.026997 3.808779 -1.982179
v -2.948727 3.808779 -2.846040
v -2.948727 1.246371 -2.846040
v -3.026997 1.246371 -1.967207
v -2.027919 5.703535 -1.982179
v -2.027919 3.808779 -1.982179
v -2.027919 1.246371 -1.967207
v -2.027919 -0.000000 -1.967207
v -2.027919 -0.000000 -2.967207
v -2.027919 1.246371 -2.967207
v -2.027919 3.808779 -2.967207
v -2.027919 5.703535 -2.967207
v -0.014174 5.703535 -1.916722
v -0.014174 3.808779 -1.901750
v -0.014174 1.246371 -1.901750
v -0.014174 -0.000000 -1.967207
v -0.014174 -0.000000 -2.967207
v -0.014174 1.246371 -2.967207
v -0.014174 3.808779 -2.967207
v -0.014174 5.703535 -2.967207
v 2.904328 -0.000000 -2.846040
v 2.904328 5.703536 -2.846040
v 2.989249 -0.000000 -1.967207
v 2.904328 5.703536 -2.077672
v 2.904328 3.808779 -2.846040
v 2.989249 3.808779 -1.982179
v 2.989249 1.246371 -1.967207
v 2.904328 1.246371 -2.846040
v 1.990171 5.703535 -2.967207
v 1.990171 3.808779 -2.967207
v 1.990171 1.246371 -2.967207
v 1.990171 -0.000000 -2.967207
v 1.990171 -0.000000 -1.967208
v 1.990171 1.246371 -1.967208
v 1.990171 3.808779 -1.982179
v 1.990171 5.703535 -1.982179
v -2.179511 1.246371 1.946792
v -2.838125 1.246371 1.946792
v -2.179511 3.808779 1.946792
v -2.838125 3.808779 1.946792
v -2.179511 -0.000000 1.946792
v -2.838125 -0.000000 1.946792
v -0.000000 1.246371 1.946792
v -0.000000 -0.000000 1.946792
v 2.800377 -0.000000 1.946792
v 2.800377 1.246371 1.946792
v 2.141763 1.246371 1.946792
v 2.141763 -0.000000 1.946792
v 2.800377 3.808779 1.946792
v 2.141763 3.808779 1.946792
v -3.026997 5.903062 -2.467207
v -3.026997 3.808779 -2.467207
v -3.026997 1.246369 -2.467207
v -3.026997 -0.000004 -2.467207
v -2.027919 -0.000004 -2.467207
v -0.014174 -0.000004 -2.467207
v 1.990171 -0.000004 -2.467207
v 2.989249 -0.000004 -2.467207
v 2.989249 1.246369 -2.467207
v 2.989249 3.808779 -2.467207
v 2.989249 5.903062 -2.467207
v 1.990171 5.903063 -2.467207
v -0.014174 5.903063 -2.467207
v -2.027919 5.903063 -2.467207
v -2.527458 5.903063 -2.467207
v -2.527458 5.703540 -1.982178
v -2.534110 3.966143 -1.982178
v -2.534110 3.808779 2.108404
v -2.527458 1.246369 2.108404
v -2.527458 -0.000004 2.108404
v -2.527458 -0.000004 -1.967207
v -2.527458 -0.000004 -2.467207
v -2.527458 -0.000004 -2.967207
v -2.527458 1.246369 -2.967207
v -2.534110 3.808779 -2.967207
v -2.527458 5.703540 -2.967207
v 2.489710 5.903063 -2.467207
v 2.489710 5.703540 -1.982178
v 2.489710 3.966143 -1.982178
v 2.489710 3.808779 2.108404
v 2.489710 1.246369 2.108404
v 2.489710 -0.000004 2.108404
v 2.489710 -0.000004 -1.967207
v 2.489710 -0.000004 -2.467207
v 2.489710 -0.000004 -2.967207
v 2.489710 1.246369 -2.967207
v 2.489710 3.808779 -2.967207
v 2.489710 5.703540 -2.967207
v -3.026997 3.808779 1.433286
v -2.534110 3.966143 1.433286
v -2.027919 3.808779 1.433286
v -2.027919 1.246371 1.433286
v -0.014174 1.246371 1.433286
v 1.990171 1.246371 1.433286
v 1.990171 3.808779 1.433286
v 2.489710 3.966143 1.433286
v 2.989249 3.808779 1.433286
v 2.989249 1.246371 1.433286
v 2.989249 -0.000000 1.433286
v 2.489710 -0.000004 1.433286
v 1.990171 -0.000000 1.433286
v -0.014174 -0.000000 1.433286
v -2.027919 -0.000000 1.433286
v -2.527458 -0.000004 1.433286
v -3.026997 -0.000000 1.433286
v -3.026997 1.246371 1.433286
vt 0.375000 0.500000
vt 0.625000 0.500000
vt 0.375000 0.750000
vt 0.625000 0.750000
vt 0.875000 0.000000
vt 0.875000 0.250000
vt 0.125000 0.000000
vt 0.125000 0.250000
vt 0.548656 0.500000
vt 0.548656 0.750000
vt 0.437524 0.750000
vt 0.437524 0.500000
vt 0.625000 0.458571
vt 0.833571 0.250000
vt 0.548656 0.458571
vt 0.437524 0.458571
vt 0.166429 0.250000
vt 0.375000 0.458571
vt 0.166429 0.000000
vt 0.375000 0.791429
vt 0.437524 0.791429
vt 0.548656 0.791429
vt 0.625000 0.791429
vt 0.833571 0.000000
vt 0.625000 0.375261
vt 0.750261 0.250000
vt 0.548656 0.375261
vt 0.437524 0.375261
vt 0.249739 0.250000
vt 0.375000 0.375261
vt 0.249739 0.000000
vt 0.375000 0.874739
vt 0.437524 0.874739
vt 0.548656 0.874739
vt 0.625000 0.874739
vt 0.750261 0.000000
vt 0.375000 0.500000
vt 0.437524 0.500000
vt 0.437524 0.750000
vt 0.375000 0.750000
vt 0.548656 0.500000
vt 0.625000 0.500000
vt 0.625000 0.750000
vt 0.548656 0.750000
vt 0.548656 0.458571
vt 0.625000 0.458571
vt 0.437524 0.458571
vt 0.375000 0.458571
vt 0.125000 0.000000
vt 0.166429 0.000000
vt 0.166429 0.250000
vt 0.125000 0.250000
vt 0.437524 0.791429
vt 0.375000 0.791429
vt 0.548656 0.791429
vt 0.625000 0.791429
vt 0.833571 0.250000
vt 0.833571 0.000000
vt 0.875000 0.000000
vt 0.875000 0.250000
vt 0.548656 0.375261
vt 0.625000 0.375261
vt 0.437524 0.375261
vt 0.375000 0.375261
vt 0.249739 0.000000
vt 0.249739 0.250000
vt 0.437524 0.874739
vt 0.375000 0.874739
vt 0.548656 0.874739
vt 0.625000 0.874739
vt 0.750261 0.250000
vt 0.750261 0.000000
vt 0.437524 0.458571
vt 0.548656 0.458571
vt 0.548656 0.500000
vt 0.437524 0.500000
vt 0.375000 0.500000
vt 0.375000 0.458571
vt 0.437524 0.375261
vt 0.375000 0.375261
vt 0.375000 0.750000
vt 0.437524 0.750000
vt 0.375000 0.791429
vt 0.548656 0.750000
vt 0.548656 0.791429
vt 0.437524 0.791429
vt 0.437524 0.874739
vt 0.375000 0.874739
vt 0.625000 0.625000
vt 0.875000 0.125000
vt 0.548656 0.625000
vt 0.437524 0.625000
vt 0.125000 0.125000
vt 0.375000 0.625000
vt 0.166429 0.125000
vt 0.249739 0.125000
vt 0.249739 0.125000
vt 0.166429 0.125000
vt 0.125000 0.125000
vt 0.375000 0.625000
vt 0.437524 0.625000
vt 0.548656 0.625000
vt 0.625000 0.625000
vt 0.875000 0.125000
vt 0.833571 0.125000
vt 0.750261 0.125000
vt 0.750261 0.125000
vt 0.833571 0.125000
vt 0.854285 0.125000
vt 0.625000 0.479285
vt 0.854285 0.250000
vt 0.548656 0.479285
vt 0.548656 0.479285
vt 0.437524 0.479285
vt 0.375000 0.479285
vt 0.145715 0.250000
vt 0.375000 0.479285
vt 0.145715 0.125000
vt 0.145715 0.000000
vt 0.375000 0.770715
vt 0.437524 0.770715
vt 0.548656 0.770715
vt 0.625000 0.770715
vt 0.854285 0.000000
vt 0.854285 0.125000
vt 0.625000 0.770715
vt 0.854285 0.000000
vt 0.548656 0.770715
vt 0.548656 0.770715
vt 0.437524 0.770715
vt 0.375000 0.770715
vt 0.145715 0.000000
vt 0.375000 0.770715
vt 0.145715 0.125000
vt 0.145715 0.250000
vt 0.375000 0.479285
vt 0.437524 0.479285
vt 0.548656 0.479285
vt 0.625000 0.479285
vt 0.854285 0.250000
vt 0.548656 0.500000
vt 0.548656 0.479285
vt 0.548656 0.458571
vt 0.437524 0.458571
vt 0.437524 0.874739
vt 0.437524 0.375261
vt 0.437524 0.791429
vt 0.548656 0.791429
vt 0.548656 0.770715
vt 0.548656 0.750000
vt 0.437524 0.750000
vt 0.375000 0.750000
vt 0.375000 0.770715
vt 0.375000 0.791429
vt 0.375000 0.375261
vt 0.375000 0.874739
vt 0.375000 0.458571
vt 0.375000 0.479285
vt 0.375000 0.500000
vt 0.437524 0.500000
vn -1.000000 0.000000 0.000000
vn -1.000000 0.000000 0.000000
vn -0.996012 0.000000 -0.089217
vn -0.996057 0.000000 -0.088710
vn -0.999253 0.008716 0.037637
vn -0.995329 0.021781 0.094047
vn -0.998922 0.011736 -0.044903
vn -0.997460 0.004910 -0.071066
vn -0.052132 0.013744 0.998546
vn -0.033451 0.003102 0.999436
vn -0.029213 0.003186 0.999568
vn -0.051780 0.013651 0.998565
vn 0.000490 0.000001 1.000000
vn 0.150252 0.000131 0.988648
vn 0.417963 0.000543 0.908464
vn -0.000727 -0.000001 1.000000
vn 0.063813 0.000000 0.997962
vn 0.000001 0.000000 1.000000
vn 0.000000 -1.000000 0.000000
vn 0.000001 -1.000000 0.000000
vn 0.000001 -1.000000 0.000007
vn 0.000000 -1.000000 0.000004
vn -0.130463 0.000000 -0.991453
vn -0.130310 -0.000114 -0.991473
vn 0.000000 0.000000 -1.000000
vn -0.000000 0.000000 -1.000000
vn -0.130724 0.000000 -0.991419
vn -0.000000 0.000000 -1.000000
vn -0.000000 0.000000 -1.000000
vn -0.130156 0.000228 -0.991493
vn -0.004751 0.931582 0.363500
vn -0.002569 0.999997 -0.000000
vn -0.024239 0.999706 -0.000000
vn -0.018282 0.917888 0.396418
vn 0.000000 0.003359 0.999994
vn 0.000000 0.003951 0.999992
vn -0.036199 0.002919 0.999340
vn 0.000000 0.002921 0.999996
vn 0.000000 0.000000 1.000000
vn 0.000000 0.000000 1.000000
vn 0.000000 -1.000000 0.000000
vn 0.000000 -1.000000 0.000008
vn 0.000000 0.000000 -1.000000
vn 0.000000 0.000000 -1.000000
vn 0.000000 0.000000 -1.000000
vn 0.000000 0.000000 -1.000000
vn -0.000000 0.933110 0.359591
vn 0.000000 1.000000 -0.000000
vn 0.995364 0.000000 -0.096182
vn 0.995311 0.000000 -0.096731
vn 1.000000 0.000000 0.000000
vn 1.000000 0.000000 0.000000
vn 0.997011 0.005325 -0.077071
vn 0.998731 0.012731 -0.048718
vn 0.994509 0.023613 0.101956
vn 0.999121 0.009456 0.040830
vn 0.280506 0.000000 -0.959852
vn 0.131396 0.000000 -0.991330
vn 0.131396 0.000000 -0.991330
vn 0.280506 0.000000 -0.959852
vn 0.280506 0.000000 -0.959852
vn 0.131396 0.000000 -0.991330
vn 0.131396 0.000000 -0.991330
vn 0.280505 0.000000 -0.959853
vn 0.000004 -1.000000 0.000004
vn 0.000000 -1.000000 0.000004
vn -0.000000 -1.000000 0.000000
vn 0.000004 -1.000000 0.000000
vn 0.461499 0.000000 0.887141
vn 0.461500 0.000000 0.887140
vn -0.000000 0.000000 1.000000
vn -0.000001 0.000000 1.000000
vn 0.461500 0.000000 0.887140
vn -0.000000 0.000000 1.000000
vn 0.052099 0.013735 0.998547
vn 0.052099 0.013735 0.998548
vn 0.108735 0.028667 0.993657
vn 0.108735 0.028667 0.993657
vn 0.024328 0.999704 0.000000
vn 0.018318 0.917873 0.396450
vn 0.043693 0.907292 0.418225
vn 0.054480 0.998515 0.000692
vn -0.000000 0.000000 -1.000000
vn 0.000000 0.000000 -1.000000
vn -0.000000 0.000000 -1.000000
vn 0.000000 0.000000 -1.000000
vn -0.000001 -1.000000 0.000007
vn -0.000001 -1.000000 0.000000
vn -0.064776 0.000000 0.997900
vn -0.152294 0.000000 0.988335
vn 0.036368 0.002919 0.999334
vn 0.033621 0.003103 0.999430
vn 0.029362 0.003188 0.999564
vn 0.004769 0.931576 0.363515
vn 0.002578 0.999997 -0.000000
vn 1.000000 -0.000000 0.000000
vn 1.000000 -0.000000 0.000000
vn 0.999254 -0.000000 0.038628
vn 0.999254 -0.000000 0.038628
vn 0.296865 0.954920 0.000000
vn 0.000000 1.000000 0.000000
vn 0.000014 0.999811 0.019424
vn 0.287685 0.957587 0.016275
vn -1.000000 0.000000 0.000000
vn -1.000000 0.000000 0.000000
vn -0.998842 0.000000 0.048108
vn -0.998842 0.000000 0.048108
vn -1.000000 0.000000 0.000000
vn -1.000000 0.000000 0.000000
vn -0.998838 0.000000 0.048200
vn -0.998838 0.000000 0.048200
vn 0.000000 -1.000000 -0.000000
vn 0.000008 -1.000000 0.000000
vn 0.000008 -1.000000 0.000000
vn 0.000000 -1.000000 0.000000
vn 0.000000 1.000000 0.000000
vn 0.000000 1.000000 0.000000
vn 0.000000 1.000000 0.000000
vn 0.000000 1.000000 0.000000
vn 0.000000 -1.000000 0.000000
vn 0.000000 -1.000000 0.000000
vn 0.000000 -1.000000 0.000000
vn 0.000000 -1.000000 0.000000
vn 1.000000 0.000000 0.000000
vn 1.000000 0.000000 0.000000
vn 0.998838 0.000000 0.048200
vn 0.998838 0.000000 0.048200
vn -0.000000 -1.000000 -0.000000
vn 0.000008 -1.000000 -0.000000
vn 0.000008 -1.000000 0.000000
vn -0.000000 -1.000000 0.000000
vn 1.000000 0.000000 0.000000
vn 1.000000 0.000000 0.000000
vn 0.998842 0.000000 0.048108
vn 0.998842 0.000000 0.048108
vn 0.300463 0.953794 0.000000
vn 0.000000 1.000000 0.000000
vn 0.000000 0.999811 0.019424
vn 0.293063 0.955965 0.015638
vn -1.000000 0.000000 0.000000
vn -1.000000 0.000000 0.000000
vn -0.999254 0.000000 0.038628
vn -0.999254 0.000000 0.038628
vn 0.000000 1.000000 0.000000
vn 0.000000 1.000000 0.000000
vn 0.000000 1.000000 -0.000000
vn 0.000000 1.000000 -0.000000
vn 0.000000 -1.000000 0.000000
vn 0.000000 -1.000000 0.000000
vn 0.000000 -1.000000 0.000000
vn 0.000000 -1.000000 0.000000
vn -0.979316 0.000000 -0.202335
vn -0.979316 0.000000 -0.202335
vn -0.979316 0.000000 -0.202335
vn -0.979316 0.000000 -0.202335
vn 0.000000 -1.000000 -0.000004
vn 0.000001 -1.000000 -0.000007
vn 0.000000 -1.000000 -0.000008
vn -0.000001 -1.000000 -0.000007
vn -0.000000 -1.000000 -0.000004
vn 0.000005 -1.000000 -0.000005
vn 0.975784 0.000000 -0.218738
vn 0.975784 0.000000 -0.218738
vn 0.975784 0.000000 -0.218738
vn 0.975784 0.000000 -0.218738
vn 0.022329 0.920670 -0.389702
vn 0.055307 0.907114 -0.417235
vn 0.000000 0.928779 -0.370633
vn -0.000001 0.928779 -0.370633
vn 0.000001 0.928780 -0.370633
vn -0.022295 0.920683 -0.389673
vn -0.054035 0.998539 0.000634
vn -0.043346 0.907444 0.417931
vn -0.108735 0.028667 0.993657
vn -0.108735 0.028667 0.993657
vn -0.304145 0.952626 0.000000
vn -0.296766 0.954822 0.015630
vn -0.464128 -0.000405 0.885768
vn -0.465416 -0.000604 0.885092
vn -0.461499 0.000000 0.887141
vn -0.000008 -1.000000 -0.000000
vn -0.000008 -1.000000 0.000000
vn -0.000004 -1.000000 0.000000
vn -0.000004 -1.000000 0.000004
vn -0.000005 -1.000000 -0.000005
vn -0.276417 0.000000 -0.961038
vn -0.277780 -0.000243 -0.960645
vn -0.278447 0.000000 -0.960452
vn -0.278447 0.000489 -0.960451
vn -0.054859 0.907311 -0.416866
vn -0.300463 0.953793 0.000000
vn -0.291268 0.956503 0.016265
vn -0.421252 0.000000 0.906944
vn -0.000008 -1.000000 0.000000
vn -0.000008 -1.000000 0.000000
vn 0.005732 0.986795 0.161875
vn -0.222795 0.961200 0.162657
vn 0.205619 0.966412 0.154169
vn 0.959082 0.000000 0.283130
vn 0.959082 0.000000 0.283130
vn 0.000000 1.000000 0.000000
vn 0.000000 1.000000 0.000000
vn 0.000000 1.000000 -0.000000
vn 0.000000 1.000000 -0.000000
vn -0.959082 0.000000 0.283130
vn -0.959082 0.000000 0.283130
vn -0.004218 0.986795 0.161918
vn -0.208770 0.965688 0.154475
vn 0.219222 0.962097 0.162208
vn 0.938529 0.000000 0.345200
vn 0.938529 0.000000 0.345200
vn 0.938529 0.000000 0.345200
vn 0.938529 0.000000 0.345200
vn 0.000010 -1.000000 0.000002
vn -0.000000 -1.000000 0.000001
vn -0.000010 -1.000000 0.000001
vn 0.000000 -1.000000 0.000000
vn 0.000000 -1.000000 0.000000
vn 0.000000 -1.000000 0.000000
vn 0.000000 -1.000000 0.000000
vn 0.000010 -1.000000 0.000001
vn 0.000000 -1.000000 0.000001
vn -0.000010 -1.000000 0.000002
vn -0.938529 0.000000 0.345200
vn -0.938529 0.000000 0.345200
vn -0.938529 0.000000 0.345200
vn -0.938529 0.000000 0.345200
s 1
g sofachair sofachair
usemtl initialShadingGroup
f 1/1/1 8/12/2 57/92/3 58/94/4
f 5/9/5 2/2/6 55/89/7 56/91/8
f 57/92/3 8/12/2 5/9/5 56/91/8
s 3
f 71/112/9 10/15/10 9/13/11 70/110/12
s 4
f 73/114/13 41/73/14 43/74/15 72/113/16
f 45/78/17 41/73/14 73/114/13 74/115/18
s 5
f 76/118/19 59/95/20 12/17/21 75/116/22
s 6
f 77/120/23 78/121/24 14/21/25 13/20/26
f 78/121/24 79/122/27 15/22/28 14/21/25
f 16/23/29 15/22/28 79/122/27 80/123/30
s 7
f 9/14/31 68/108/32 69/109/33 70/111/34
s 3
f 10/15/10 18/27/35 17/25/36 9/13/11
f 11/16/37 19/28/38 18/27/35 10/15/10
s 4
f 48/80/39 47/79/40 41/73/14 45/78/17
s 5
f 59/95/20 60/97/41 20/29/42 12/17/21
s 6
f 13/20/26 14/21/25 22/33/43 21/32/44
f 14/21/25 15/22/28 23/34/45 22/33/43
f 24/35/46 23/34/45 15/22/28 16/23/29
s 7
f 17/26/47 67/107/48 68/108/32 9/14/31
s 8
f 62/100/49 63/101/50 31/39/51 27/40/52
f 64/102/53 65/103/54 28/43/55 30/44/56
f 31/39/51 63/101/50 64/102/53 30/44/56
s 6
f 29/41/57 91/138/58 92/139/59 26/42/60
f 32/38/61 90/137/62 91/138/58 29/41/57
f 89/136/63 90/137/62 32/38/61 25/37/64
s 5
f 27/49/65 87/132/66 88/134/67 62/99/68
s 4
f 49/81/69 50/82/70 85/130/71 86/131/72
f 50/82/70 53/84/73 84/129/74 85/130/71
s 3
f 82/126/75 83/128/76 30/44/77 28/43/78
s 7
f 81/125/79 82/127/80 28/59/81 65/104/82
s 6
f 34/45/83 23/61/45 24/62/46 33/46/84
f 35/47/85 22/63/43 23/61/45 34/45/83
f 21/64/44 22/63/43 35/47/85 36/48/86
s 5
f 37/50/87 20/65/42 60/96/41 61/98/88
s 4
f 52/83/89 51/86/90 47/87/40 48/88/39
s 3
f 38/53/91 39/55/92 18/69/35 19/67/38
f 17/70/36 18/69/35 39/55/92 40/56/93
s 7
f 67/106/48 17/72/47 40/58/94 66/105/95
s 15
f 11/16/96 10/15/97 95/143/98 96/144/99
s 16
f 10/15/100 71/112/101 94/142/102 95/143/103
s 17
f 5/9/104 8/12/105 110/160/106 93/141/107
s 18
f 8/12/108 1/1/109 109/159/110 110/160/111
s 19
f 75/117/112 12/18/113 107/157/114 108/158/115
s 20
f 19/28/116 11/16/117 96/144/118 97/146/119
s 21
f 12/18/120 20/30/121 106/155/122 107/157/123
s 22
f 27/40/124 31/39/125 102/151/126 103/152/127
s 23
f 87/133/128 27/40/129 103/152/130 104/153/131
s 24
f 31/39/132 30/44/133 101/150/134 102/151/135
s 25
f 30/44/136 83/128/137 100/149/138 101/150/139
s 26
f 39/55/140 38/53/141 98/147/142 99/148/143
s 27
f 38/53/144 19/67/145 97/145/146 98/147/147
s 28
f 20/68/148 37/54/149 105/154/150 106/156/151
s 1
f 56/91/8 55/89/7 4/4/152 6/10/153
f 7/11/154 57/92/3 56/91/8 6/10/153
f 58/94/4 57/92/3 7/11/154 3/3/155
s 5
f 77/119/156 13/19/157 59/95/20 76/118/19
f 13/19/157 21/31/158 60/97/41 59/95/20
f 61/98/88 60/96/41 21/66/158 36/51/159
f 62/99/68 88/134/67 89/135/160 25/52/161
s 8
f 25/37/162 32/38/163 63/101/50 62/100/49
f 64/102/53 63/101/50 32/38/163 29/41/164
f 29/41/164 26/42/165 65/103/54 64/102/53
s 7
f 92/140/166 81/125/79 65/104/82 26/60/167
f 24/71/168 67/106/48 66/105/95 33/57/169
f 68/108/32 67/107/48 24/36/168 16/24/170
f 80/124/171 69/109/33 68/108/32 16/24/170
f 70/111/34 69/109/33 55/90/172 2/6/173
s 3
f 5/9/174 71/112/9 70/110/12 2/2/175
s 16
f 94/142/102 71/112/101 5/9/176 93/141/177
s 4
f 42/76/178 73/114/13 72/113/16 44/75/179
f 74/115/18 73/114/13 42/76/178 46/77/180
s 19
f 1/1/181 75/117/112 108/158/115 109/159/182
s 5
f 58/93/183 76/118/19 75/116/22 1/8/184
f 3/7/185 77/119/156 76/118/19 58/93/183
s 6
f 3/3/186 7/11/187 78/121/24 77/120/23
f 7/11/187 6/10/188 79/122/27 78/121/24
f 80/123/30 79/122/27 6/10/188 4/4/189
s 7
f 55/90/172 69/109/33 80/124/171 4/5/190
f 66/105/95 40/58/94 82/127/80 81/125/79
s 3
f 40/56/93 39/55/92 83/128/76 82/126/75
s 25
f 100/149/138 83/128/137 39/55/191 99/148/192
s 4
f 85/130/71 84/129/74 54/85/193 51/86/90
f 86/131/72 85/130/71 51/86/90 52/83/89
s 23
f 37/54/194 87/133/128 104/153/131 105/154/195
s 5
f 88/134/67 87/132/66 37/50/87 61/98/88
f 89/135/160 88/134/67 61/98/88 36/51/159
s 6
f 36/48/86 35/47/85 90/137/62 89/136/63
f 91/138/58 90/137/62 35/47/85 34/45/83
f 92/139/59 91/138/58 34/45/83 33/46/84
s 7
f 33/57/169 66/105/95 81/125/79 92/140/166
s 16
f 72/113/196 94/142/102 93/141/177 44/75/197
f 95/143/103 94/142/102 72/113/196 43/74/198
s 15
f 96/144/99 95/143/98 43/74/199 41/73/200
s 20
f 97/146/119 96/144/118 41/73/201 47/79/202
s 27
f 98/147/147 97/145/146 47/87/203 51/86/204
s 26
f 99/148/143 98/147/142 51/86/205 54/85/206
s 25
f 84/129/207 100/149/138 99/148/192 54/85/208
f 101/150/139 100/149/138 84/129/207 53/84/209
s 24
f 102/151/135 101/150/134 53/84/210 50/82/211
s 22
f 103/152/127 102/151/126 50/82/212 49/81/213
s 23
f 104/153/131 103/152/130 49/81/214 86/131/215
f 105/154/195 104/153/131 86/131/215 52/83/216
s 28
f 106/156/151 105/154/150 52/83/217 48/88/218
s 21
f 107/157/123 106/155/122 48/80/219 45/78/220
s 19
f 108/158/115 107/157/114 45/78/221 74/115/222
f 109/159/182 108/158/115 74/115/222 46/77/223
s 18
f 110/160/111 109/159/110 46/77/224 42/76/225
s 17
f 93/141/107 110/160/106 42/76/226 44/75/227
